<?xml version="1.0" standalone="no"?>
<!DOCTYPE svg PUBLIC "-//W3C//DTD SVG 20010904//EN"
 "http://www.w3.org/TR/2001/REC-SVG-20010904/DTD/svg10.dtd">
<svg version="1.0" xmlns="http://www.w3.org/2000/svg"
 width="640.000000pt" height="1280.000000pt" viewBox="0 0 640.000000 1280.000000"
 preserveAspectRatio="xMidYMid meet">
<metadata>
Created by potrace 1.15, written by Peter Selinger 2001-2017
</metadata>
<g transform="translate(0.000000,1280.000000) scale(0.100000,-0.100000)"
fill="#000000" stroke="none">
<path d="M5860 12736 c-599 -404 -1137 -1092 -1444 -1848 -339 -834 -458
-1763 -340 -2663 83 -638 322 -1449 604 -2053 l39 -82 -44 -648 c-25 -356 -67
-980 -95 -1387 -28 -407 -73 -1071 -100 -1475 -28 -404 -66 -967 -86 -1250
-22 -317 -33 -546 -30 -595 26 -363 274 -631 657 -711 103 -22 312 -24 418 -5
339 61 608 272 700 547 47 142 47 130 11 894 -6 113 -33 689 -60 1280 -27 591
-54 1171 -60 1288 -5 116 -14 308 -20 425 -5 116 -19 403 -30 637 -20 410 -20
553 -20 4068 0 2003 -1 3642 -2 3642 -2 0 -46 -29 -98 -64z"/>
<path d="M223 10668 c3 -1908 4 -2089 20 -2150 58 -231 161 -414 320 -564 166
-159 364 -254 597 -290 135 -20 885 -20 1020 0 498 76 874 463 929 959 8 65
11 748 11 2112 l0 2015 -170 0 -170 0 -2 -1747 -3 -1748 -29 -53 c-49 -89
-124 -132 -228 -132 -105 1 -191 54 -238 147 l-25 48 -3 1743 -2 1742 -160 0
-160 0 -2 -1742 -3 -1743 -21 -45 c-45 -97 -127 -149 -234 -150 -80 0 -150 30
-199 85 -72 82 -66 -81 -69 1853 l-2 1742 -160 0 -160 0 -2 -1742 -3 -1743
-21 -45 c-45 -96 -128 -149 -234 -150 -109 0 -204 60 -247 155 -17 38 -18 129
-21 1783 l-2 1742 -165 0 -165 0 3 -2082z"/>
<path d="M1286 7553 c-4 -49 -74 -1269 -156 -2713 -83 -1444 -155 -2704 -160
-2800 -6 -96 -15 -249 -20 -340 -5 -91 -19 -329 -31 -530 -11 -201 -19 -406
-15 -456 11 -188 86 -347 230 -489 76 -76 106 -98 186 -137 137 -67 200 -82
355 -82 105 0 145 4 209 22 309 88 531 343 568 652 10 82 -18 604 -182 3430
-5 91 -14 244 -20 340 -49 845 -180 3150 -180 3168 l0 22 -389 0 -389 0 -6
-87z"/>
</g>
</svg>
